<svg version="1.1" xmlns="http://www.w3.org/2000/svg" viewBox="0 0 1890.1999136273362 564.7998962402344" width="5670.5997408820085" height="1694.3996887207031">
  <!-- svg-source:excalidraw -->
  
  <defs>
    <style class="style-fonts">
      @font-face {
        font-family: "Virgil";
        src: url("https://www.blocksandarrows.com//dist/excalidraw-assets/Virgil.woff2");
      }
      @font-face {
        font-family: "Cascadia";
        src: url("https://www.blocksandarrows.com//dist/excalidraw-assets/Cascadia.woff2");
      }
      @font-face {
        font-family: "Assistant";
        src: url("https://www.blocksandarrows.com//dist/excalidraw-assets/Assistant-Regular.woff2");
      }
    </style>
    
  </defs>
  <rect x="0" y="0" width="1890.1999136273362" height="564.7998962402344" fill="#ffffff"></rect><g stroke-linecap="round" transform="translate(500.9344717328049 15.999969482421875) rotate(0 75 32.5)"><path d="M-1.17 -2.3 L146.06 -2.85 L147.92 68.78 L0.8 62.71" stroke="none" stroke-width="0" fill="#ffec99"></path><path d="M-1.05 2.17 C28.93 2.36, 62.44 4.42, 149.03 2.28 M0.93 -1.29 C40.91 4.75, 81.15 2.4, 150.61 -0.48 M151.71 3.75 C150.33 9.6, 151.96 29.28, 150.98 68.84 M148.95 0.87 C148.06 24.52, 151.26 53.5, 148.1 66.5 M148.87 64.38 C102.1 66.18, 55.26 67.85, 1.17 64.34 M151.24 66.77 C109.93 63.5, 65.84 64.4, -0.7 63.94 M0.47 61.51 C3.09 55.39, 3.87 35.81, 1.89 -1.13 M-1.83 64.07 C-0.35 48.67, 1.34 34.52, 1.28 -1.63" stroke="#1e1e1e" stroke-width="2" fill="none"></path></g><g stroke-linecap="round" transform="translate(481.7345205609299 489.7998962402344) rotate(0 75 32.5)"><path d="M-2.3 -3.94 L147.15 -2.08 L153.78 65.8 L-2.29 68.52" stroke="none" stroke-width="0" fill="#ffec99"></path><path d="M2.17 -2.02 C36.81 1.33, 75.38 -0.18, 152.28 -1.24 M-1.29 0.54 C57.89 -0.98, 111.49 -0.78, 149.52 -1.95 M153.75 1.11 C146.03 18.35, 152.53 32.21, 153.84 68.88 M150.87 -1.92 C149.83 20.66, 153 36.84, 151.5 65.5 M149.38 65.83 C119.88 66.89, 89.99 65.32, -0.66 64.15 M151.77 66.76 C100.95 66.35, 54.61 66.15, -1.06 63.1 M-3.49 66.88 C2.53 54.18, -3.72 39.93, -1.13 -2.2 M-0.93 64.57 C0.22 47.17, 2 28.1, -1.63 -0.59" stroke="#1e1e1e" stroke-width="2" fill="none"></path></g><g stroke-linecap="round" transform="translate(723.9344717328049 15.999969482421875) rotate(0 88 32.5)"><path d="M-3.94 -2.85 L173.92 3.78 L176.8 62.71 L3.52 61.74" stroke="none" stroke-width="0" fill="#ffec99"></path><path d="M-2.02 0.3 C41.25 0.45, 80.45 0.36, 174.76 2.92 M0.54 1.94 C36.72 1.86, 73.23 1.79, 174.05 -1.2 M177.11 -3.58 C179.3 20.46, 177.54 38.91, 179.88 64.92 M174.08 -1.28 C176.61 26.94, 173.41 51.58, 176.5 63.21 M176.83 66.42 C127.34 67.54, 74.37 63.79, -0.85 65.6 M177.76 63.2 C120.94 67.21, 66.17 67.06, -1.9 63.15 M1.88 68.72 C2.51 37.01, 1.73 12.96, -2.2 -0.25 M-0.43 64.6 C2.44 49.97, 2.47 30.54, -0.59 -1.15" stroke="#1e1e1e" stroke-width="2" fill="none"></path></g><g stroke-linecap="round" transform="translate(723.9344717328049 486.1999206542969) rotate(0 88 32.5)"><path d="M-2.85 -2.08 L179.78 0.8 L173.71 68.52 L-3.26 66.09" stroke="none" stroke-width="0" fill="#ffec99"></path><path d="M0.3 0.54 C50.52 0.81, 98.6 0.55, 178.92 -3.75 M1.94 0.41 C60.55 -0.35, 121.43 -2.9, 174.8 -0.6 M172.42 2.74 C180.14 23.26, 181.06 48.43, 175.92 68.41 M174.72 1.29 C178.46 14.18, 178.06 32.66, 174.21 64.84 M177.42 67.74 C131.28 66.9, 79.73 64.89, 0.6 65.4 M174.2 64.5 C111.41 67.4, 47.57 66.2, -1.85 66.83 M3.72 67.66 C-1.4 46.62, 0.01 22.26, -0.25 -1.9 M-0.4 66.25 C1.99 52.71, -1.02 37.28, -1.15 -1.97" stroke="#1e1e1e" stroke-width="2" fill="none"></path></g><g stroke-linecap="round" transform="translate(1090.13442290468 15.999969482421875) rotate(0 84 32.5)"><path d="M-2.08 3.78 L168.8 -2.29 L171.52 61.74 L1.09 67.6" stroke="none" stroke-width="0" fill="#ffec99"></path><path d="M0.54 2.36 C58.56 2.02, 117.82 2.67, 164.25 1.85 M0.41 -0.41 C40.19 -3.74, 77.21 -4.46, 167.4 0.85 M170.74 2.92 C169.34 29.43, 172.24 51.12, 171.41 62.89 M169.29 1.9 C164.85 23.81, 167.25 42.84, 167.84 64.43 M170.74 68.09 C121.37 65.53, 71.56 66.79, 0.4 67.47 M167.5 64.1 C102.02 60.91, 35.55 60.12, 1.83 65.24 M2.66 62.47 C1.27 50.04, -2.81 37.08, -1.9 -3.65 M1.25 66.39 C1.56 46.9, -0.3 30.9, -1.97 -1.43" stroke="#1e1e1e" stroke-width="2" fill="none"></path></g><g stroke-linecap="round" transform="translate(1102.13442290468 486.1999816894531) rotate(0 84 32.5)"><path d="M3.78 0.8 L165.71 3.52 L164.74 66.09 L2.6 67.48" stroke="none" stroke-width="0" fill="#ffec99"></path><path d="M2.36 -0.97 C44.17 -1.69, 86.71 -4.2, 169.85 -2.58 M-0.41 0.61 C54.48 -2.64, 108.72 -1.3, 168.85 1.88 M170.92 0.98 C170.67 25.18, 166.76 46.01, 165.89 66.73 M169.9 -1.9 C168.66 13.76, 165.37 26.37, 167.43 64.69 M171.09 66.17 C113.43 66.45, 60.79 67.7, 2.47 68.54 M167.1 64.3 C101.75 62.26, 35.76 65.99, 0.24 63.26 M-2.53 66.89 C-2.34 40.25, -1.46 17.98, -3.65 -1.86 M1.39 66.28 C-1.37 46.32, -0.89 26.84, -1.43 -1.04" stroke="#1e1e1e" stroke-width="2" fill="none"></path></g><g stroke-linecap="round" transform="translate(1418.53432524843 10) rotate(0 95.5 32.5)"><path d="M0.8 -2.29 L194.52 -3.26 L192.09 67.6 L2.48 68.2" stroke="none" stroke-width="0" fill="#ffec99"></path><path d="M-0.97 2.28 C57.5 0.67, 113.71 -0.4, 188.42 1.09 M0.61 -0.48 C73.92 -0.42, 151.13 1.63, 192.88 0.55 M191.98 3.84 C195.77 13.61, 195.3 25.26, 192.73 61.16 M189.1 1.5 C192.34 13.54, 191.68 30.11, 190.69 65.42 M192.17 64.34 C126.06 68.55, 63.21 70.42, 3.54 68.52 M190.3 63.94 C149.03 61.43, 112.69 63.52, -1.74 65.94 M1.89 63.87 C-3.06 39.2, -2.76 10.25, -1.86 -0.87 M1.28 63.37 C-1.4 45.64, -2.79 27.15, -1.04 1.89" stroke="#1e1e1e" stroke-width="2" fill="none"></path></g><g stroke-linecap="round" transform="translate(1425.734764701555 475.3999328613281) rotate(0 95.5 32.5)"><path d="M-2.29 3.52 L187.74 1.09 L193.6 67.48 L3.2 65.35" stroke="none" stroke-width="0" fill="#ffec99"></path><path d="M2.28 -1.24 C62.79 -2.82, 121.6 -1.65, 192.09 3.89 M-0.48 -1.95 C60.03 -1.77, 123.32 0.72, 191.55 -1.79 M194.84 3.88 C191.87 27.36, 189.85 49.64, 187.16 62.44 M192.5 0.5 C190.44 23.53, 191.66 47.07, 191.42 65.71 M190.34 64.15 C121.23 66.52, 52.73 69.66, 3.52 61.39 M189.94 63.1 C136.64 65.49, 86.22 61.91, 0.94 66.86 M-1.13 62.8 C0.57 39.28, -2.83 15.49, -0.87 -0.79 M-1.63 64.41 C-2.05 39.46, -2.33 16.82, 1.89 0.4" stroke="#1e1e1e" stroke-width="2" fill="none"></path></g><g stroke-linecap="round" transform="translate(830.9344717328049 218.2000732421875) rotate(0 155.5 19)"><path d="M3.09 1.17 L310.34 -0.85 L311.6 38.4 L2.47 41.54" stroke="none" stroke-width="0" fill="#a5d8ff"></path><path d="M-0.88 2.09 C108.97 -1.21, 221.45 -1.75, 313.78 0.59 M307.11 -2.39 C310.02 12.34, 314.98 22.36, 307.42 40.74 M313.77 37.94 C197.4 40.76, 80.16 39.52, -1.83 39.84 M1 34.41 C0.4 21.86, 0.1 8.83, 1.42 2.74" stroke="#1e1e1e" stroke-width="2.5" fill="none" stroke-dasharray="8 10"></path></g><g stroke-linecap="round" transform="translate(870.1344229046799 165.39993286132812) rotate(0 112.5 19)"><path d="M1.17 -0.66 L224.15 0.6 L225.4 40.47 L3.54 41.52" stroke="none" stroke-width="0" fill="#a5d8ff"></path><path d="M2.51 -3.22 C63.62 -1.02, 124.99 4.53, 225.71 -0.7 M222.61 -1.21 C226.53 16.31, 225.92 21.53, 227.74 40.92 M224.93 40.93 C150.17 43.23, 75.65 39.55, 2.21 41.25 M-3.59 37.68 C-1.7 29.6, 0.27 23.86, 2.74 3.09" stroke="#1e1e1e" stroke-width="2.5" fill="none" stroke-dasharray="8 10"></path></g><g stroke-linecap="round" transform="translate(1533.03432524843 212.19989013671875) rotate(0 105 19)"><path d="M-0.66 -0.85 L210.6 0.4 L212.47 41.54 L3.52 34.39" stroke="none" stroke-width="0" fill="#a5d8ff"></path><path d="M-3.31 1.64 C72.68 -1.75, 153.34 -1.98, 209.28 1.07 M208.79 1.71 C213.01 11.6, 205.68 23.73, 212.92 38.98 M213.01 36.14 C128.39 34.54, 41.46 40.21, 3.35 34.64 M-0.32 36.87 C-0.81 24.59, 1.23 12.26, 3.09 1.17" stroke="#1e1e1e" stroke-width="2.5" fill="none" stroke-dasharray="8 10"></path></g><g stroke-linecap="round"><g transform="translate(563.5344473187424 82.19998168945312) rotate(0 -1.800018310546875 205.5999755859375)"><path d="M-1.12 0.56 C-1.79 69, -4.15 343.04, -4.37 411.53 M0.49 -0.2 C0.24 67.79, -1.55 340.73, -2.07 409.57" stroke="black" stroke-width="1" fill="none"></path></g></g><mask></mask><g stroke-linecap="round"><g transform="translate(811.9344717328049 82.19998168945312) rotate(0 -3 200.79998779296875)"><path d="M0.56 -0.77 C-0.54 66.54, -4.62 335.74, -5.67 402.77 M-0.61 1.44 C-1.91 68.55, -5.49 334.4, -6.45 401.26" stroke="black" stroke-width="1" fill="none"></path></g></g><mask></mask><g stroke-linecap="round"><g transform="translate(1171.7343984906174 80.99996948242188) rotate(0 -1.800048828125 202.00003051757812)"><path d="M-0.77 0.33 C-0.99 67.61, -1.92 336.91, -2.43 404.25 M1.02 -0.55 C0.85 66.3, -1.81 335.13, -2.77 402.25" stroke="black" stroke-width="1" fill="none"></path></g></g><mask></mask><g stroke-linecap="round"><g transform="translate(1521.23452056093 74.99996948242188) rotate(359.4725634335181 -1.20001220703125 200.80001831054688)"><path d="M0.33 1.17 C-0.13 68.19, -1.76 334.67, -2.15 401.36 M-0.96 0.73 C-1.6 68.01, -2.7 335.81, -2.97 402.77" stroke="black" stroke-width="1" fill="none"></path></g></g><mask></mask><g mask="url(#mask-cOIQ0oMhsCRGPNUykG3ND)" stroke-linecap="round"><g transform="translate(563.7737163468164 131.1122773543682) rotate(0 127.96128962828448 -2.1290176905137344)"><path d="M1.17 0.25 C43.91 -0.46, 213.27 -2.95, 255.68 -3.89 M0.32 -0.67 C42.95 -1.77, 212.2 -5.15, 254.6 -5.82" stroke="black" stroke-width="2" fill="none"></path></g><g transform="translate(563.7737163468164 131.1122773543682) rotate(0 127.96128962828448 -2.1290176905137344)"><path d="M226.61 4.95 C233.58 1.73, 240.38 -0.88, 254.6 -5.82 M226.61 4.95 C232.77 3.79, 238.3 -0.23, 254.6 -5.82" stroke="black" stroke-width="2" fill="none"></path></g><g transform="translate(563.7737163468164 131.1122773543682) rotate(0 127.96128962828448 -2.1290176905137344)"><path d="M226.23 -15.57 C233.35 -13.95, 240.23 -11.73, 254.6 -5.82 M226.23 -15.57 C232.35 -12.57, 237.95 -12.43, 254.6 -5.82" stroke="black" stroke-width="2" fill="none"></path></g></g><mask id="mask-cOIQ0oMhsCRGPNUykG3ND"><rect x="0" y="0" fill="#fff" width="919.6962956033854" height="235.37031273539566"></rect><rect x="615.3030906918978" y="98.98325966385448" fill="#000" width="152.86383056640625" height="60" opacity="1"></rect></mask><g mask="url(#mask-xhlGRR7K4RRNlTpRgH9Y_)" stroke-linecap="round"><g transform="translate(810.5102063763658 150.0396801866945) rotate(0 179.16202281493833 -2.9198645074097556)"><path d="M0.25 -0.24 C59.97 -1.46, 299.2 -5.07, 358.69 -6.13 M-1.08 -1.42 C58.49 -1.95, 297.85 -4.04, 357.93 -4.74" stroke="black" stroke-width="2" fill="none"></path></g><g transform="translate(810.5102063763658 150.0396801866945) rotate(0 179.16202281493833 -2.9198645074097556)"><path d="M329.85 5.8 C338.53 2.9, 347.64 -3.1, 357.93 -4.74 M329.85 5.8 C337.56 3.43, 342.47 1.3, 357.93 -4.74" stroke="black" stroke-width="2" fill="none"></path></g><g transform="translate(810.5102063763658 150.0396801866945) rotate(0 179.16202281493833 -2.9198645074097556)"><path d="M329.64 -14.72 C338.59 -10.9, 347.77 -10.19, 357.93 -4.74 M329.64 -14.72 C337.34 -12.17, 342.31 -9.36, 357.93 -4.74" stroke="black" stroke-width="2" fill="none"></path></g></g><mask id="mask-xhlGRR7K4RRNlTpRgH9Y_"><rect x="0" y="0" fill="#fff" width="1268.8342520062424" height="255.87940920151402"></rect><rect x="901.328318974019" y="137.11981567928473" fill="#000" width="176.6878204345703" height="20" opacity="1"></rect></mask><g mask="url(#mask-cifhs3dNndcIujyT265OW)" stroke-linecap="round"><g transform="translate(1182.6081350920101 180.20001220703125) rotate(0 166.0631927344599 -2.9999847412109375)"><path d="M-0.24 0.36 C54.87 -0.87, 276.56 -6.05, 331.84 -7.17 M1.83 -0.49 C56.66 -1.64, 275.39 -5.45, 330.74 -6.24" stroke="black" stroke-width="2" fill="none"></path></g><g transform="translate(1182.6081350920101 180.20001220703125) rotate(0 166.0631927344599 -2.9999847412109375)"><path d="M302.72 4.47 C314.44 -0.21, 323.01 -5.18, 330.74 -6.24 M302.72 4.47 C310.51 0.42, 318.48 -0.84, 330.74 -6.24" stroke="black" stroke-width="2" fill="none"></path></g><g transform="translate(1182.6081350920101 180.20001220703125) rotate(0 166.0631927344599 -2.9999847412109375)"><path d="M302.39 -16.05 C314.28 -12.57, 322.99 -9.4, 330.74 -6.24 M302.39 -16.05 C310.36 -14.56, 318.41 -10.29, 330.74 -6.24" stroke="black" stroke-width="2" fill="none"></path></g></g><mask id="mask-cifhs3dNndcIujyT265OW"><rect x="0" y="0" fill="#fff" width="1614.73452056093" height="286.1999816894531"></rect><rect x="1276.079416510552" y="167.2000274658203" fill="#000" width="145.18382263183594" height="20" opacity="1"></rect></mask><g transform="translate(543.3016592328049 38.499969482421875) rotate(0 32.6328125 10)"><text x="32.6328125" y="0" font-family="Virgil, Segoe UI Emoji" font-size="16px" fill="#000" text-anchor="middle" style="white-space: pre;" direction="ltr" dominant-baseline="text-before-edge">"Análisis"</text></g><g transform="translate(524.1017080609299 512.2998962402344) rotate(0 32.6328125 10)"><text x="32.6328125" y="0" font-family="Virgil, Segoe UI Emoji" font-size="16px" fill="#000" text-anchor="middle" style="white-space: pre;" direction="ltr" dominant-baseline="text-before-edge">"Análisis"</text></g><g transform="translate(733.8563467328049 38.499969482421875) rotate(0 78.078125 10)"><text x="78.078125" y="0" font-family="Virgil, Segoe UI Emoji" font-size="16px" fill="#000" text-anchor="middle" style="white-space: pre;" direction="ltr" dominant-baseline="text-before-edge">"Optimización Lógica"</text></g><g transform="translate(733.8563467328049 508.6999206542969) rotate(0 78.078125 10)"><text x="78.078125" y="0" font-family="Virgil, Segoe UI Emoji" font-size="16px" fill="#000" text-anchor="middle" style="white-space: pre;" direction="ltr" dominant-baseline="text-before-edge">"Optimización Lógica"</text></g><g transform="translate(1099.98207915468 38.499969482421875) rotate(0 74.15234375 10)"><text x="74.15234375" y="0" font-family="Virgil, Segoe UI Emoji" font-size="16px" fill="#000" text-anchor="middle" style="white-space: pre;" direction="ltr" dominant-baseline="text-before-edge">"Optimización Física"</text></g><g transform="translate(1111.98207915468 508.6999816894531) rotate(0 74.15234375 10)"><text x="74.15234375" y="0" font-family="Virgil, Segoe UI Emoji" font-size="16px" fill="#000" text-anchor="middle" style="white-space: pre;" direction="ltr" dominant-baseline="text-before-edge">"Optimización Física"</text></g><g transform="translate(1429.28041899843 32.5) rotate(0 84.75390625 10)"><text x="84.75390625" y="0" font-family="Virgil, Segoe UI Emoji" font-size="16px" fill="#000" text-anchor="middle" style="white-space: pre;" direction="ltr" dominant-baseline="text-before-edge">"Generación de Código"</text></g><g transform="translate(1436.480858451555 497.8999328613281) rotate(0 84.75390625 10)"><text x="84.75390625" y="0" font-family="Virgil, Segoe UI Emoji" font-size="16px" fill="#000" text-anchor="middle" style="white-space: pre;" direction="ltr" dominant-baseline="text-before-edge">"Generación de Código"</text></g><g transform="translate(841.0399404828049 227.2000732421875) rotate(0 145.39453125 10)"><text x="145.39453125" y="0" font-family="Virgil, Segoe UI Emoji" font-size="16px" fill="#000" text-anchor="middle" style="white-space: pre;" direction="ltr" dominant-baseline="text-before-edge">Eliminación de subconsultas redundantes</text></g><g transform="translate(880.4312979046799 174.39993286132812) rotate(0 102.203125 10)"><text x="102.203125" y="0" font-family="Virgil, Segoe UI Emoji" font-size="16px" fill="#000" text-anchor="middle" style="white-space: pre;" direction="ltr" dominant-baseline="text-before-edge">Estrategia de unión de tablas</text></g><g transform="translate(1543.47573149843 221.19989013671875) rotate(0 94.55859375 10)"><text x="94.55859375" y="0" font-family="Virgil, Segoe UI Emoji" font-size="16px" fill="#000" text-anchor="middle" style="white-space: pre;" direction="ltr" dominant-baseline="text-before-edge">Generación de código Java</text></g><g transform="translate(615.3030906918978 98.98325966385445) rotate(0 76.46989456301091 29.340222426080146)"><text x="76.43191528320312" y="0" font-family="Virgil, Segoe UI Emoji" font-size="16px" fill="black" text-anchor="middle" style="white-space: pre;" direction="ltr" dominant-baseline="text-before-edge">Transformación del </text><text x="76.43191528320312" y="20" font-family="Virgil, Segoe UI Emoji" font-size="16px" fill="black" text-anchor="middle" style="white-space: pre;" direction="ltr" dominant-baseline="text-before-edge">AST(Arbol de Analisis </text><text x="76.43191528320312" y="40" font-family="Virgil, Segoe UI Emoji" font-size="16px" fill="black" text-anchor="middle" style="white-space: pre;" direction="ltr" dominant-baseline="text-before-edge">Extracto)</text></g><g transform="translate(901.3283189740189 137.11981567928478) rotate(0 87.98495842609094 9.734838692098847)"><text x="88.34391021728516" y="0" font-family="Virgil, Segoe UI Emoji" font-size="16px" fill="black" text-anchor="middle" style="white-space: pre;" direction="ltr" dominant-baseline="text-before-edge">Planificación de ejecución</text></g><g transform="translate(1276.0794165105522 167.2000274658203) rotate(0 72.32675000801669 9.598506303876633)"><text x="72.59191131591797" y="0" font-family="Virgil, Segoe UI Emoji" font-size="16px" fill="black" text-anchor="middle" style="white-space: pre;" direction="ltr" dominant-baseline="text-before-edge">WholeStage Codegen</text></g><g transform="translate(568.3846060101487 284.4002685546875) rotate(359.2300094317083 103.37586212158203 52.43466660867102)"><text x="0" y="0" font-family="Virgil, Segoe UI Emoji" font-size="16.779093314774755px" fill="#e03131" text-anchor="start" style="white-space: pre;" direction="ltr" dominant-baseline="text-before-edge"> </text><text x="0" y="20.973866643468444" font-family="Virgil, Segoe UI Emoji" font-size="16.779093314774755px" fill="#e03131" text-anchor="start" style="white-space: pre;" direction="ltr" dominant-baseline="text-before-edge">  Catalyst revisará si existe </text><text x="0" y="41.94773328693689" font-family="Virgil, Segoe UI Emoji" font-size="16.779093314774755px" fill="#e03131" text-anchor="start" style="white-space: pre;" direction="ltr" dominant-baseline="text-before-edge">   la tabla 'usuarios'   y las </text><text x="0" y="62.921599930405335" font-family="Virgil, Segoe UI Emoji" font-size="16.779093314774755px" fill="#e03131" text-anchor="start" style="white-space: pre;" direction="ltr" dominant-baseline="text-before-edge">   columnas 'nombre' y 'edad'.</text><text x="0" y="83.89546657387378" font-family="Virgil, Segoe UI Emoji" font-size="16.779093314774755px" fill="#e03131" text-anchor="start" style="white-space: pre;" direction="ltr" dominant-baseline="text-before-edge">  (explain plan)</text></g><g transform="translate(354.2857415297732 316.3337708743022) rotate(359.1615429284254 96.7918930053711 30)"><text x="0" y="0" font-family="Virgil, Segoe UI Emoji" font-size="16px" fill="#e03131" text-anchor="start" style="white-space: pre;" direction="ltr" dominant-baseline="text-before-edge">SELECT nombre FROM </text><text x="0" y="20" font-family="Virgil, Segoe UI Emoji" font-size="16px" fill="#e03131" text-anchor="start" style="white-space: pre;" direction="ltr" dominant-baseline="text-before-edge">   (SELECT * FROM usuarios)</text><text x="0" y="40" font-family="Virgil, Segoe UI Emoji" font-size="16px" fill="#e03131" text-anchor="start" style="white-space: pre;" direction="ltr" dominant-baseline="text-before-edge">     WHERE edad &gt; 30</text></g><g transform="translate(812.1842886273362 330.81246185302734) rotate(0 174.47979736328125 20)"><text x="0" y="0" font-family="Virgil, Segoe UI Emoji" font-size="16px" fill="#e03131" text-anchor="start" style="white-space: pre;" direction="ltr" dominant-baseline="text-before-edge">Catalyst la simplificará a </text><text x="0" y="20" font-family="Virgil, Segoe UI Emoji" font-size="16px" fill="#e03131" text-anchor="start" style="white-space: pre;" direction="ltr" dominant-baseline="text-before-edge">SELECT nombre FROM usuarios WHERE edad &gt; 30.</text></g><g transform="translate(1187.38442290468 306.61238861083984) rotate(0 159.4718017578125 40)"><text x="0" y="0" font-family="Virgil, Segoe UI Emoji" font-size="16px" fill="#e03131" text-anchor="start" style="white-space: pre;" direction="ltr" dominant-baseline="text-before-edge">Si tu consulta implica unir dos grandes tablas, </text><text x="0" y="20" font-family="Virgil, Segoe UI Emoji" font-size="16px" fill="#e03131" text-anchor="start" style="white-space: pre;" direction="ltr" dominant-baseline="text-before-edge">Catalyst decidirá la mejor estrategia de unión</text><text x="0" y="40" font-family="Virgil, Segoe UI Emoji" font-size="16px" fill="#e03131" text-anchor="start" style="white-space: pre;" direction="ltr" dominant-baseline="text-before-edge">join basada en el tamaño de las tablas y</text><text x="0" y="60" font-family="Virgil, Segoe UI Emoji" font-size="16px" fill="#e03131" text-anchor="start" style="white-space: pre;" direction="ltr" dominant-baseline="text-before-edge"> la distribución de los datos.</text></g><g transform="translate(1527.78432524843 315.61251068115234) rotate(0 176.20779418945312 60)"><text x="0" y="0" font-family="Virgil, Segoe UI Emoji" font-size="16px" fill="#e03131" text-anchor="start" style="white-space: pre;" direction="ltr" dominant-baseline="text-before-edge">Para la consulta </text><text x="0" y="20" font-family="Virgil, Segoe UI Emoji" font-size="16px" fill="#e03131" text-anchor="start" style="white-space: pre;" direction="ltr" dominant-baseline="text-before-edge">SELECT nombre FROM usuarios WHERE edad &gt; 30, </text><text x="0" y="40" font-family="Virgil, Segoe UI Emoji" font-size="16px" fill="#e03131" text-anchor="start" style="white-space: pre;" direction="ltr" dominant-baseline="text-before-edge">Catalyst generará un código Java que realiza </text><text x="0" y="60" font-family="Virgil, Segoe UI Emoji" font-size="16px" fill="#e03131" text-anchor="start" style="white-space: pre;" direction="ltr" dominant-baseline="text-before-edge">la operación de filtro (edad &gt; 30) y selecciona</text><text x="0" y="80" font-family="Virgil, Segoe UI Emoji" font-size="16px" fill="#e03131" text-anchor="start" style="white-space: pre;" direction="ltr" dominant-baseline="text-before-edge"> la columna 'nombre', todo optimizado </text><text x="0" y="100" font-family="Virgil, Segoe UI Emoji" font-size="16px" fill="#e03131" text-anchor="start" style="white-space: pre;" direction="ltr" dominant-baseline="text-before-edge">para una ejecución rápida.</text></g><g transform="translate(16.13774668795135 146.5952452853956) rotate(319.63677223266643 217.43902587890625 89.39999999999989)"><text x="0" y="0" font-family="Helvetica, Segoe UI Emoji" font-size="77.73913043478252px" fill="#1e1e1e" text-anchor="start" style="white-space: pre;" direction="ltr" dominant-baseline="text-before-edge">CATALYST</text><text x="0" y="89.39999999999989" font-family="Helvetica, Segoe UI Emoji" font-size="77.73913043478252px" fill="#1e1e1e" text-anchor="start" style="white-space: pre;" direction="ltr" dominant-baseline="text-before-edge">SPARK SQL</text></g></svg>